<svg width="41" height="22" viewBox="0 0 41 22" fill="none" xmlns="http://www.w3.org/2000/svg">
<rect width="41" height="22" fill="#FF6915"/>
<path d="M6.88 12.624V11.458H9.74V12.624H6.88ZM16.7131 13.834V15H11.1581C11.1508 14.7287 11.1728 14.4757 11.2241 14.241C11.2755 13.999 11.3305 13.7937 11.3891 13.625C11.4551 13.449 11.5615 13.2693 11.7081 13.086C11.8621 12.8953 11.9831 12.7523 12.0711 12.657C12.1591 12.5543 12.3131 12.4223 12.5331 12.261C12.7605 12.0997 12.9145 11.9933 12.9951 11.942C13.0758 11.8907 13.2481 11.7843 13.5121 11.623C13.5415 11.601 13.5671 11.5863 13.5891 11.579C13.6111 11.5643 13.6368 11.5497 13.6661 11.535C13.6955 11.513 13.7211 11.4947 13.7431 11.48C14.0071 11.3187 14.2125 11.1903 14.3591 11.095C14.5058 10.9923 14.6671 10.8567 14.8431 10.688C15.0265 10.5193 15.1585 10.336 15.2391 10.138C15.3198 9.94 15.3601 9.72 15.3601 9.478C15.3601 9.368 15.3455 9.258 15.3161 9.148C15.2941 9.03067 15.2391 8.89867 15.1511 8.752C15.0705 8.598 14.9275 8.47333 14.7221 8.378C14.5241 8.28267 14.2748 8.235 13.9741 8.235C12.9988 8.235 12.5111 8.71533 12.5111 9.676V9.863H11.1581V9.665C11.1581 9.313 11.2058 8.99767 11.3011 8.719C11.3965 8.433 11.5138 8.202 11.6531 8.026C11.7925 7.85 11.9611 7.69967 12.1591 7.575C12.3645 7.443 12.5515 7.34767 12.7201 7.289C12.8888 7.223 13.0721 7.17167 13.2701 7.135C13.4755 7.09833 13.6258 7.08 13.7211 7.08C13.8165 7.07267 13.9118 7.069 14.0071 7.069C14.8358 7.069 15.5068 7.27067 16.0201 7.674C16.5335 8.07733 16.7901 8.67867 16.7901 9.478C16.7901 9.73467 16.7645 9.973 16.7131 10.193C16.6691 10.4057 16.5848 10.6073 16.4601 10.798C16.3428 10.9813 16.2328 11.1353 16.1301 11.26C16.0348 11.3847 15.8808 11.524 15.6681 11.678C15.4555 11.832 15.2905 11.9457 15.1731 12.019C15.0631 12.0923 14.8798 12.206 14.6231 12.36C14.5498 12.404 14.4948 12.437 14.4581 12.459C13.8275 12.8477 13.4095 13.1263 13.2041 13.295C12.9988 13.4563 12.8521 13.636 12.7641 13.834H16.7131ZM21.7248 14.956C21.3802 15.1393 20.9768 15.231 20.5148 15.231C20.0528 15.231 19.6458 15.1393 19.2938 14.956C18.9492 14.7653 18.6778 14.5343 18.4798 14.263C18.2818 13.9843 18.1205 13.6543 17.9958 13.273C17.8785 12.8843 17.8015 12.525 17.7648 12.195C17.7282 11.865 17.7098 11.5167 17.7098 11.15C17.7098 10.7833 17.7282 10.435 17.7648 10.105C17.8015 9.775 17.8785 9.41933 17.9958 9.038C18.1205 8.64933 18.2818 8.31933 18.4798 8.048C18.6778 7.76933 18.9492 7.53833 19.2938 7.355C19.6458 7.16433 20.0528 7.069 20.5148 7.069C20.9768 7.069 21.3802 7.16433 21.7248 7.355C22.0768 7.53833 22.3518 7.76933 22.5498 8.048C22.7478 8.31933 22.9055 8.64933 23.0228 9.038C23.1475 9.41933 23.2282 9.775 23.2648 10.105C23.3015 10.435 23.3198 10.7833 23.3198 11.15C23.3198 11.5167 23.3015 11.865 23.2648 12.195C23.2282 12.525 23.1475 12.8843 23.0228 13.273C22.9055 13.6543 22.7478 13.9843 22.5498 14.263C22.3518 14.5343 22.0768 14.7653 21.7248 14.956ZM20.1958 14.032C20.2912 14.054 20.3975 14.065 20.5148 14.065C20.6322 14.065 20.7385 14.054 20.8338 14.032C20.9292 14.01 21.0465 13.944 21.1858 13.834C21.3252 13.724 21.4425 13.5737 21.5378 13.383C21.6332 13.185 21.7138 12.8953 21.7798 12.514C21.8532 12.1327 21.8898 11.678 21.8898 11.15C21.8898 10.622 21.8532 10.1673 21.7798 9.786C21.7138 9.40467 21.6332 9.11867 21.5378 8.928C21.4425 8.73 21.3252 8.576 21.1858 8.466C21.0465 8.356 20.9292 8.29 20.8338 8.268C20.7385 8.246 20.6322 8.235 20.5148 8.235C20.3975 8.235 20.2912 8.246 20.1958 8.268C20.1005 8.29 19.9832 8.356 19.8438 8.466C19.7045 8.576 19.5872 8.73 19.4918 8.928C19.3965 9.11867 19.3122 9.40467 19.2388 9.786C19.1728 10.1673 19.1398 10.622 19.1398 11.15C19.1398 11.678 19.1728 12.1327 19.2388 12.514C19.3122 12.8953 19.3965 13.185 19.4918 13.383C19.5872 13.5737 19.7045 13.724 19.8438 13.834C19.9832 13.944 20.1005 14.01 20.1958 14.032ZM26.2085 15L30.8395 7.3H31.8625L27.2315 15H26.2085ZM24.8995 7.828C25.2295 7.41733 25.6879 7.212 26.2745 7.212C26.8612 7.212 27.3195 7.41733 27.6495 7.828C27.9795 8.23133 28.1445 8.75933 28.1445 9.412C28.1445 10.0647 27.9795 10.5963 27.6495 11.007C27.3195 11.4103 26.8612 11.612 26.2745 11.612C25.6879 11.612 25.2295 11.4103 24.8995 11.007C24.5695 10.5963 24.4045 10.0647 24.4045 9.412C24.4045 8.75933 24.5695 8.23133 24.8995 7.828ZM27.2645 9.412C27.2645 8.42933 26.9345 7.938 26.2745 7.938C25.6145 7.938 25.2845 8.42933 25.2845 9.412C25.2845 10.3947 25.6145 10.886 26.2745 10.886C26.9345 10.886 27.2645 10.3947 27.2645 9.412ZM30.4215 11.304C30.7515 10.8933 31.2099 10.688 31.7965 10.688C32.3832 10.688 32.8415 10.8933 33.1715 11.304C33.5015 11.7073 33.6665 12.2353 33.6665 12.888C33.6665 13.5407 33.5015 14.0723 33.1715 14.483C32.8415 14.8863 32.3832 15.088 31.7965 15.088C31.2099 15.088 30.7515 14.8863 30.4215 14.483C30.0915 14.0723 29.9265 13.5407 29.9265 12.888C29.9265 12.2353 30.0915 11.7073 30.4215 11.304ZM32.7865 12.888C32.7865 11.9053 32.4565 11.414 31.7965 11.414C31.1365 11.414 30.8065 11.9053 30.8065 12.888C30.8065 13.8707 31.1365 14.362 31.7965 14.362C32.4565 14.362 32.7865 13.8707 32.7865 12.888Z" fill="white"/>
</svg>
