<svg width="75" height="75" viewBox="0 0 75 75" fill="none" xmlns="http://www.w3.org/2000/svg">
<path d="M23.7895 28.5263C24.7945 28.5263 25.7584 28.9256 26.469 29.6362C27.1797 30.3469 27.5789 31.3108 27.5789 32.3158C27.5789 33.3208 27.1797 34.2847 26.469 34.9954C25.7584 35.706 24.7945 36.1053 23.7895 36.1053C22.7844 36.1053 21.8206 35.706 21.1099 34.9954C20.3992 34.2847 20 33.3208 20 32.3158C20 31.3108 20.3992 30.3469 21.1099 29.6362C21.8206 28.9256 22.7844 28.5263 23.7895 28.5263ZM23.7895 28.5263H31.3684M23.7895 28.5263V2H20M23.7895 5.78947L50.3158 7.68421L48.9573 17.1882M34.2105 20.9474H23.7895M46.5263 38L52.8737 31.7777C53.2629 31.4 53.5725 30.9481 53.7843 30.4488C53.996 29.9494 54.1055 29.4127 54.1064 28.8703C54.1073 28.3279 53.9995 27.7909 53.7894 27.2908C53.5793 26.7908 53.2712 26.3379 52.8832 25.9589C52.0914 25.1846 51.0286 24.7501 49.9212 24.748C48.8137 24.7459 47.7492 25.1763 46.9545 25.9476L46.5301 26.3644L46.1076 25.9476C45.3159 25.1738 44.2535 24.7397 43.1465 24.7376C42.0395 24.7354 40.9755 25.1655 40.1808 25.9362C39.7915 26.3138 39.4817 26.7656 39.2698 27.2648C39.0579 27.7641 38.9482 28.3008 38.9472 28.8432C38.9461 29.3856 39.0537 29.9227 39.2636 30.4228C39.4736 30.9229 39.7816 31.3758 40.1695 31.7549L46.5263 38Z" stroke="#FF6915" stroke-width="1.6" stroke-linecap="round" stroke-linejoin="round"/>
</svg>
