<svg width="90" height="70" viewBox="0 0 90 70" fill="none" xmlns="http://www.w3.org/2000/svg">
<mask id="path-1-inside-1_7679_7351" fill="white">
<path d="M0 0H88V70H0V0Z"/>
</mask>
<path d="M1 70V0H-1V70H1Z" fill="#EAEAEA" mask="url(#path-1-inside-1_7679_7351)"/>
<path d="M32.4927 28.4111C32.0165 27.9639 31.4506 27.609 30.8275 27.3668C30.2045 27.1247 29.5365 27 28.8618 27C28.1872 27 27.5191 27.1247 26.8961 27.3668C26.273 27.609 25.7071 27.9639 25.2309 28.4111L24.5 29.1042L23.7691 28.4111C23.2929 27.9639 22.727 27.609 22.1039 27.3668C21.4809 27.1247 20.8128 27 20.1382 27C19.4635 27 18.7955 27.1247 18.1725 27.3668C17.5494 27.609 16.9835 27.9639 16.5073 28.4111C14.4949 30.2947 14.3715 33.4755 16.906 35.8922L24.5 43L32.094 35.8922C34.6285 33.4755 34.5051 30.2947 32.4927 28.4111Z" stroke="#211D19" stroke-width="1.4" stroke-linecap="round" stroke-linejoin="round"/>
<circle cx="36.5017" cy="25.5017" r="7.50168" fill="#FF6915"/>
<path d="M33.6401 26.6369H35.1901C35.1901 27.0102 35.2901 27.3369 35.4901 27.6169C35.6901 27.8902 36.0201 28.0269 36.4801 28.0269C37.0135 28.0269 37.3535 27.8769 37.5001 27.5769C37.6201 27.3635 37.6801 27.1569 37.6801 26.9569C37.6801 26.3169 37.3135 25.9969 36.5801 25.9969H35.8801V24.8469H36.4101C37.1635 24.8469 37.5401 24.5535 37.5401 23.9669C37.5401 23.7069 37.4468 23.4935 37.2601 23.3269C37.0735 23.1535 36.7935 23.0669 36.4201 23.0669C36.0601 23.0669 35.7801 23.1635 35.5801 23.3569C35.3868 23.5502 35.2901 23.8835 35.2901 24.3569H33.8201C33.8201 23.8635 33.9135 23.4269 34.1001 23.0469C34.5001 22.2469 35.3001 21.8469 36.5001 21.8469C37.4601 21.8469 38.1368 22.0769 38.5301 22.5369C38.8501 22.9102 39.0101 23.3402 39.0101 23.8269C39.0101 24.3335 38.8535 24.7169 38.5401 24.9769C38.3068 25.1702 38.0468 25.3035 37.7601 25.3769V25.4069C38.1668 25.4602 38.5168 25.6202 38.8101 25.8869C39.0968 26.1535 39.2401 26.5602 39.2401 27.1069C39.2401 27.4669 39.1635 27.7902 39.0101 28.0769C38.8635 28.3569 38.6768 28.5735 38.4501 28.7269C38.2368 28.8669 37.9935 28.9769 37.7201 29.0569C37.3135 29.1835 36.9201 29.2469 36.5401 29.2469C36.3868 29.2469 36.2835 29.2435 36.2301 29.2369C36.1768 29.2369 36.0235 29.2202 35.7701 29.1869C35.5301 29.1535 35.3368 29.1102 35.1901 29.0569C34.7168 28.8902 34.3568 28.6469 34.1101 28.3269C33.7901 27.8602 33.6335 27.2969 33.6401 26.6369Z" fill="white"/>
<path d="M70.5659 34.1111V29.6667C70.5659 28.9594 70.875 28.2811 71.4251 27.781C71.9753 27.281 72.7215 27 73.4995 27C74.2776 27 75.0237 27.281 75.5739 27.781C76.124 28.2811 76.4331 28.9594 76.4331 29.6667V34.1111M67.956 31.4444H79.044C79.326 31.4444 79.6047 31.4998 79.8609 31.6068C80.1171 31.7139 80.3449 31.87 80.5285 32.0645C80.7121 32.2591 80.8473 32.4874 80.9248 32.7339C81.0022 32.9803 81.0201 33.2391 80.9773 33.4924L79.7501 40.7387C79.6435 41.3684 79.2925 41.9426 78.7604 42.3574C78.2284 42.7722 77.5506 43.0002 76.8497 43H70.1493C69.4486 43 68.771 42.7719 68.2392 42.3572C67.7074 41.9424 67.3565 41.3682 67.25 40.7387L66.0227 33.4924C65.9799 33.2391 65.9978 32.9803 66.0752 32.7339C66.1527 32.4874 66.2879 32.2591 66.4715 32.0645C66.6551 31.87 66.8829 31.7139 67.1391 31.6068C67.3953 31.4998 67.674 31.4444 67.956 31.4444Z" stroke="#211D19" stroke-width="1.4" stroke-linecap="round" stroke-linejoin="round"/>
<circle cx="82.5017" cy="25.5017" r="7.50168" fill="#FF6915"/>
<path d="M83.7501 23.2669H79.5901V22.0469H85.3801V23.2069C84.5068 24.0202 83.8335 24.9435 83.3601 25.9769C83.1535 26.4569 82.9835 26.9735 82.8501 27.5269C82.7168 28.0869 82.6568 28.5935 82.6701 29.0469H80.9501C81.0235 28.0602 81.2635 27.1235 81.6701 26.2369C82.2035 25.1435 82.8968 24.1835 83.7501 23.3569V23.2669Z" fill="white"/>
</svg>
