<svg width="89" height="70" viewBox="0 0 89 70" fill="none" xmlns="http://www.w3.org/2000/svg">
<path d="M25.3247 44.9503C26.9613 43.2925 28.4536 41.8002 29.919 40.279C30.3036 39.879 30.7421 39.8579 31.2305 39.8579C36.1024 39.8579 40.7819 39.8579 45.6538 39.8579C46.575 39.8579 47.3269 39.2752 47.3269 38.3136C47.3269 37.5444 46.575 36.879 45.6538 36.879C41.8076 36.879 38.0287 36.879 34.1825 36.879C33.098 36.8858 32.0279 36.6305 31.0632 36.1348C29.3594 35.2578 28.5267 33.6347 28.9478 31.7597C29.1474 30.8606 29.4595 29.9903 29.8767 29.1693C30.994 27.0193 32.971 26 35.2037 25.4654C36.3199 25.2065 37.4617 25.0736 38.6076 25.0692C44.1172 25.0308 49.6289 25.0519 55.1462 25.05H56.2424C55.977 25.3577 55.8289 25.5519 55.6559 25.725C54.3905 26.9943 53.1001 28.2423 51.8577 29.5347C51.6662 29.7448 51.4304 29.9099 51.1673 30.018C50.9043 30.1261 50.6205 30.1744 50.3366 30.1597C46.0121 30.1392 41.6864 30.1392 37.3595 30.1597C36.8837 30.1718 36.4111 30.2409 35.9518 30.3654C35.1825 30.5578 34.9614 31.2135 34.7979 31.8712C34.696 32.302 35.1825 32.852 35.7037 32.9212C36.3372 33.0105 36.9756 33.0606 37.6152 33.0713C41.4614 33.102 45.3076 33.1097 49.1538 33.1347C50.3726 33.1368 51.5645 33.4929 52.5847 34.1597C53.9308 35.0367 54.2424 36.4348 53.9635 37.8867C53.1751 41.9791 50.6193 44.2329 46.573 44.7541C45.4013 44.8923 44.222 44.9565 43.0422 44.9464C37.4345 44.9637 31.8286 44.9464 26.2209 44.9464L25.3247 44.9503Z" fill="black"/>
<path d="M55.4922 36.8702C55.2576 34.6759 54.5711 32.8317 52.7614 31.4855C53.0768 31.1624 53.3384 30.8951 53.5961 30.6317C55.2942 28.9316 56.998 27.2355 58.6865 25.5278C58.8206 25.3723 58.9869 25.2477 59.1738 25.1627C59.3607 25.0777 59.5639 25.0343 59.7692 25.0354C67.5552 25.0495 75.3418 25.0547 83.1291 25.0508C83.2539 25.0621 83.3779 25.0814 83.5003 25.1085C83.308 25.3354 83.1522 25.5258 82.983 25.697C81.7387 26.9451 80.4714 28.1701 79.2579 29.447C79.0523 29.6839 78.7955 29.871 78.507 29.9943C78.2185 30.1175 77.9059 30.1737 77.5925 30.1586C71.5367 30.1297 65.477 30.1432 59.4231 30.1432C59.1673 30.1432 58.9096 30.122 58.6538 30.1432C57.5827 30.2509 56.8576 31.5067 57.3711 32.4509C57.5173 32.7163 57.8827 32.9048 58.1884 33.0278C58.4423 33.124 58.7654 33.0721 59.0442 33.0721C64.0116 33.0721 68.979 33.0605 73.9444 33.0913C75.2526 33.0729 76.5602 33.161 77.8541 33.3548C79.4714 33.6336 80.8195 34.4048 81.2041 36.1894C81.3306 36.6856 81.3574 37.202 81.2829 37.7087C80.5772 41.2953 78.7829 43.6414 74.9752 44.5434C73.7952 44.8106 72.5889 44.9442 71.379 44.9415C65.3231 44.9799 59.2634 44.9588 53.2114 44.9588C52.9364 44.9588 51.5076 44.9338 51.1172 44.9165C53.5961 43.7857 54.4442 41.8164 54.9807 39.9164C61.1904 39.9164 67.2 39.8645 73.2867 39.8645C74.4848 39.8645 75.2559 39.4801 75.2559 38.3971C75.2559 37.2471 74.1713 36.8971 73.0675 36.8971C67.6212 36.8843 62.1725 36.8843 56.7211 36.8971L55.4922 36.8702Z" fill="#FF6915"/>
</svg>
