<svg width="63" height="75" viewBox="0 0 63 75" fill="none" xmlns="http://www.w3.org/2000/svg">
<g clip-path="url(#clip0_212_7742)">
<path d="M3.78947 28.5263C4.7945 28.5263 5.75837 28.9256 6.46904 29.6362C7.1797 30.3469 7.57895 31.3108 7.57895 32.3158C7.57895 33.3208 7.1797 34.2847 6.46904 34.9954C5.75837 35.706 4.7945 36.1053 3.78947 36.1053C2.78444 36.1053 1.82058 35.706 1.10991 34.9954C0.399247 34.2847 0 33.3208 0 32.3158C0 31.3108 0.399247 30.3469 1.10991 29.6362C1.82058 28.9256 2.78444 28.5263 3.78947 28.5263ZM3.78947 28.5263H11.3684M3.78947 28.5263V2H0M3.78947 5.78947L30.3158 7.68421L28.9573 17.1882M14.2105 20.9474H3.78947M26.5263 38L32.8737 31.7777C33.2629 31.4 33.5725 30.9481 33.7843 30.4488C33.996 29.9494 34.1055 29.4127 34.1064 28.8703C34.1073 28.3279 33.9995 27.7909 33.7894 27.2908C33.5793 26.7908 33.2712 26.3379 32.8832 25.9589C32.0914 25.1846 31.0286 24.7501 29.9212 24.748C28.8137 24.7459 27.7492 25.1763 26.9545 25.9476L26.5301 26.3644L26.1076 25.9476C25.3159 25.1738 24.2535 24.7397 23.1465 24.7376C22.0395 24.7354 20.9755 25.1655 20.1808 25.9362C19.7915 26.3138 19.4817 26.7656 19.2698 27.2648C19.0579 27.7641 18.9482 28.3008 18.9472 28.8432C18.9461 29.3856 19.0537 29.9227 19.2636 30.4228C19.4736 30.9229 19.7816 31.3758 20.1695 31.7549L26.5263 38Z" stroke="#FF6915" stroke-width="1.6" stroke-linecap="round" stroke-linejoin="round"/>
</g>
<defs>
<clipPath id="clip0_212_7742">
<rect width="63" height="75" fill="white"/>
</clipPath>
</defs>
</svg>
