<svg width="63" height="75" viewBox="0 0 63 75" fill="none" xmlns="http://www.w3.org/2000/svg">
<g clip-path="url(#clip0_212_7736)">
<path d="M31.5997 35.6332L27.2559 37.9091C27.127 37.9762 26.982 38.0062 26.837 37.9956C26.6921 37.9851 26.5529 37.9344 26.4351 37.8494C26.3173 37.7643 26.2254 37.6482 26.1698 37.5139C26.1141 37.3797 26.0969 37.2326 26.1199 37.0892L26.9499 32.2674L23.4361 28.8536C23.3312 28.7522 23.2569 28.6233 23.2218 28.4818C23.1866 28.3402 23.192 28.1916 23.2372 28.0529C23.2825 27.9142 23.3658 27.7911 23.4777 27.6975C23.5896 27.6039 23.7256 27.5437 23.8701 27.5236L28.7258 26.8197L30.8977 22.4339C30.9627 22.3033 31.0628 22.1934 31.1868 22.1165C31.3108 22.0397 31.4538 21.999 31.5997 21.999C31.7455 21.999 31.8885 22.0397 32.0126 22.1165C32.1366 22.1934 32.2367 22.3033 32.3016 22.4339L34.4735 26.8197L39.3293 27.5236C39.4734 27.5444 39.6088 27.605 39.7202 27.6987C39.8316 27.7923 39.9145 27.9153 39.9597 28.0537C40.0049 28.1921 40.0104 28.3403 39.9757 28.4817C39.941 28.623 39.8674 28.7519 39.7633 28.8536L36.2494 32.2674L37.0774 37.0872C37.1022 37.2309 37.0863 37.3787 37.0313 37.5138C36.9764 37.6489 36.8847 37.7659 36.7666 37.8515C36.6485 37.9372 36.5088 37.9879 36.3633 37.9981C36.2178 38.0083 36.0723 37.9775 35.9434 37.9091L31.5997 35.6332Z" stroke="#FF6915" stroke-width="1.6" stroke-linecap="round" stroke-linejoin="round"/>
<path d="M8.40083 35.6332L4.05705 37.9091C3.92815 37.9762 3.78313 38.0062 3.63819 37.9956C3.49326 37.9851 3.35411 37.9344 3.23628 37.8494C3.11845 37.7643 3.02658 37.6482 2.97092 37.5139C2.91527 37.3797 2.89802 37.2326 2.92111 37.0892L3.75107 32.2674L0.237245 28.8536C0.132364 28.7522 0.0581036 28.6233 0.02294 28.4818C-0.0122235 28.3402 -0.00687323 28.1916 0.0383802 28.0529C0.0836336 27.9142 0.166967 27.7911 0.278867 27.6975C0.390767 27.6039 0.526726 27.5437 0.671223 27.5236L5.52698 26.8197L7.69887 22.4339C7.76382 22.3033 7.86394 22.1934 7.98795 22.1165C8.11196 22.0397 8.25495 21.999 8.40083 21.999C8.54672 21.999 8.68971 22.0397 8.81372 22.1165C8.93773 22.1934 9.03785 22.3033 9.1028 22.4339L11.2747 26.8197L16.1304 27.5236C16.2745 27.5444 16.4099 27.605 16.5213 27.6987C16.6327 27.7923 16.7157 27.9153 16.7609 28.0537C16.806 28.1921 16.8116 28.3403 16.7768 28.4817C16.7421 28.623 16.6685 28.7519 16.5644 28.8536L13.0506 32.2674L13.8786 37.0872C13.9034 37.2309 13.8875 37.3787 13.8325 37.5138C13.7776 37.6489 13.6859 37.7659 13.5678 37.8515C13.4497 37.9372 13.3099 37.9879 13.1644 37.9981C13.0189 38.0083 12.8735 37.9775 12.7446 37.9091L8.40083 35.6332Z" stroke="#FF6915" stroke-width="1.6" stroke-linecap="round" stroke-linejoin="round"/>
<path d="M20.0003 15.6342L15.6565 17.9101C15.5276 17.9772 15.3825 18.0072 15.2376 17.9966C15.0927 17.9861 14.9535 17.9354 14.8357 17.8504C14.7179 17.7653 14.626 17.6492 14.5703 17.515C14.5147 17.3807 14.4974 17.2336 14.5205 17.0902L15.3505 12.2684L11.8367 8.85458C11.7318 8.75319 11.6575 8.62436 11.6224 8.48278C11.5872 8.34121 11.5925 8.1926 11.6378 8.05392C11.6831 7.91524 11.7664 7.79207 11.8783 7.69849C11.9902 7.6049 12.1261 7.54466 12.2706 7.52465L17.1264 6.82068L19.2983 2.43491C19.3632 2.30428 19.4634 2.19437 19.5874 2.11754C19.7114 2.04071 19.8544 2 20.0003 2C20.1461 2 20.2891 2.04071 20.4131 2.11754C20.5371 2.19437 20.6373 2.30428 20.7022 2.43491L22.8741 6.82068L27.7299 7.52465C27.8739 7.54538 28.0093 7.606 28.1207 7.69968C28.2322 7.79335 28.3151 7.91633 28.3603 8.05471C28.4054 8.19308 28.411 8.34133 28.3763 8.48269C28.3415 8.62405 28.268 8.75287 28.1638 8.85458L24.65 12.2684L25.478 17.0882C25.5028 17.2319 25.4869 17.3797 25.4319 17.5148C25.377 17.6499 25.2853 17.7669 25.1672 17.8525C25.0491 17.9382 24.9093 17.9889 24.7638 17.9991C24.6183 18.0093 24.4729 17.9785 24.344 17.9101L20.0003 15.6342Z" stroke="#FF6915" stroke-width="1.6" stroke-linecap="round" stroke-linejoin="round"/>
</g>
<defs>
<clipPath id="clip0_212_7736">
<rect width="63" height="75" fill="white"/>
</clipPath>
</defs>
</svg>
