<svg width="76" height="32" viewBox="0 0 76 32" fill="none" xmlns="http://www.w3.org/2000/svg">
<rect width="76" height="32" fill="black"/>
<path d="M12.343 16.546V20H10.935V12.3H12.343V15.38H15.775V12.3H17.183V20H15.775V16.546H12.343ZM21.9601 12.091C22.0994 12.0763 22.2424 12.069 22.3891 12.069C22.5358 12.069 22.6751 12.0763 22.8071 12.091C22.9464 12.0983 23.1518 12.1313 23.4231 12.19C23.6944 12.2413 23.9401 12.3183 24.1601 12.421C24.3801 12.5163 24.6184 12.6667 24.8751 12.872C25.1391 13.0773 25.3591 13.3193 25.5351 13.598C25.7111 13.8693 25.8578 14.2287 25.9751 14.676C26.0998 15.116 26.1621 15.6073 26.1621 16.15C26.1621 16.6927 26.0998 17.1877 25.9751 17.635C25.8578 18.075 25.7111 18.4343 25.5351 18.713C25.3591 18.9843 25.1391 19.2227 24.8751 19.428C24.6184 19.6333 24.3801 19.7873 24.1601 19.89C23.9401 19.9853 23.6944 20.0587 23.4231 20.11C23.1518 20.1687 22.9464 20.2017 22.8071 20.209C22.6751 20.2237 22.5358 20.231 22.3891 20.231C22.2424 20.231 22.0994 20.2237 21.9601 20.209C21.8281 20.2017 21.6264 20.1687 21.3551 20.11C21.0838 20.0587 20.8381 19.9853 20.6181 19.89C20.3981 19.7873 20.1561 19.6333 19.8921 19.428C19.6354 19.2227 19.4191 18.9843 19.2431 18.713C19.0671 18.4343 18.9168 18.075 18.7921 17.635C18.6748 17.1877 18.6161 16.6927 18.6161 16.15C18.6161 15.6073 18.6748 15.116 18.7921 14.676C18.9168 14.2287 19.0671 13.8693 19.2431 13.598C19.4191 13.3193 19.6354 13.0773 19.8921 12.872C20.1561 12.6667 20.3981 12.5163 20.6181 12.421C20.8381 12.3183 21.0838 12.2413 21.3551 12.19C21.6264 12.1313 21.8281 12.0983 21.9601 12.091ZM23.5331 13.521C23.2178 13.3303 22.8364 13.235 22.3891 13.235C21.9418 13.235 21.5604 13.3303 21.2451 13.521C20.9298 13.7043 20.6951 13.95 20.5411 14.258C20.3871 14.566 20.2771 14.874 20.2111 15.182C20.1524 15.49 20.1231 15.8127 20.1231 16.15C20.1231 16.4873 20.1524 16.81 20.2111 17.118C20.2771 17.426 20.3871 17.734 20.5411 18.042C20.6951 18.35 20.9298 18.5993 21.2451 18.79C21.5604 18.9733 21.9418 19.065 22.3891 19.065C22.8364 19.065 23.2178 18.9733 23.5331 18.79C23.8484 18.5993 24.0831 18.35 24.2371 18.042C24.3911 17.734 24.4974 17.426 24.5561 17.118C24.6221 16.81 24.6551 16.4873 24.6551 16.15C24.6551 15.8127 24.6221 15.49 24.5561 15.182C24.4974 14.874 24.3911 14.566 24.2371 14.258C24.0831 13.95 23.8484 13.7043 23.5331 13.521ZM27.5961 12.3H31.2261C31.6001 12.3 31.9301 12.344 32.2161 12.432C32.5021 12.5127 32.7295 12.619 32.8981 12.751C33.0668 12.8757 33.2025 13.0297 33.3051 13.213C33.4078 13.389 33.4775 13.5613 33.5141 13.73C33.5508 13.8913 33.5691 14.0637 33.5691 14.247C33.5691 14.6723 33.4481 15.039 33.2061 15.347C32.9715 15.6477 32.6671 15.831 32.2931 15.897V15.919C32.4765 15.9483 32.6488 16.0033 32.8101 16.084C32.9788 16.1573 33.1475 16.2637 33.3161 16.403C33.4921 16.5423 33.6315 16.7367 33.7341 16.986C33.8368 17.2353 33.8881 17.5213 33.8881 17.844C33.8881 18.1593 33.8441 18.438 33.7561 18.68C33.6755 18.922 33.5581 19.12 33.4041 19.274C33.2575 19.4207 33.0961 19.5453 32.9201 19.648C32.7441 19.7507 32.5388 19.8277 32.3041 19.879C32.0768 19.923 31.8678 19.956 31.6771 19.978C31.4938 19.9927 31.2921 20 31.0721 20H27.5961V12.3ZM29.0041 13.466V15.424H30.8631C31.6991 15.424 32.1171 15.1197 32.1171 14.511C32.1171 13.8143 31.6881 13.466 30.8301 13.466H29.0041ZM29.0041 16.59V18.834H30.9291C31.4058 18.834 31.7761 18.7533 32.0401 18.592C32.3041 18.4233 32.4361 18.1227 32.4361 17.69C32.4361 17.448 32.3885 17.25 32.2931 17.096C32.2051 16.9347 32.0768 16.821 31.9081 16.755C31.7395 16.689 31.5855 16.645 31.4461 16.623C31.3068 16.601 31.1455 16.59 30.9621 16.59H29.0041ZM36.8674 17.932L40.5304 12.3H41.9054V20H40.4974V14.368L36.8344 20H35.4594V12.3H36.8674V17.932ZM45.1819 16.546V20H43.7739V12.3H45.1819V15.38H48.6139V12.3H50.0219V20H48.6139V16.546H45.1819ZM53.303 15.765L56.394 12.3H58.066L54.656 15.853L58.352 20H56.57L53.303 16.007V20H51.895V12.3H53.303V15.765ZM60.6754 18.383L60.1144 20H58.6074L61.5114 12.3H62.9194L65.8234 20H64.3164L63.7554 18.383H60.6754ZM61.0494 17.217H63.3814L62.2154 13.796L61.0494 17.217Z" fill="white"/>
</svg>
