<svg width="49" height="32" viewBox="0 0 49 32" fill="none" xmlns="http://www.w3.org/2000/svg">
<rect width="49" height="32" fill="#FF6915"/>
<path d="M10.88 17.624V16.458H13.74V17.624H10.88ZM20.7131 18.834V20H15.1581C15.1508 19.7287 15.1728 19.4757 15.2241 19.241C15.2755 18.999 15.3305 18.7937 15.3891 18.625C15.4551 18.449 15.5615 18.2693 15.7081 18.086C15.8621 17.8953 15.9831 17.7523 16.0711 17.657C16.1591 17.5543 16.3131 17.4223 16.5331 17.261C16.7605 17.0997 16.9145 16.9933 16.9951 16.942C17.0758 16.8907 17.2481 16.7843 17.5121 16.623C17.5415 16.601 17.5671 16.5863 17.5891 16.579C17.6111 16.5643 17.6368 16.5497 17.6661 16.535C17.6955 16.513 17.7211 16.4947 17.7431 16.48C18.0071 16.3187 18.2125 16.1903 18.3591 16.095C18.5058 15.9923 18.6671 15.8567 18.8431 15.688C19.0265 15.5193 19.1585 15.336 19.2391 15.138C19.3198 14.94 19.3601 14.72 19.3601 14.478C19.3601 14.368 19.3455 14.258 19.3161 14.148C19.2941 14.0307 19.2391 13.8987 19.1511 13.752C19.0705 13.598 18.9275 13.4733 18.7221 13.378C18.5241 13.2827 18.2748 13.235 17.9741 13.235C16.9988 13.235 16.5111 13.7153 16.5111 14.676V14.863H15.1581V14.665C15.1581 14.313 15.2058 13.9977 15.3011 13.719C15.3965 13.433 15.5138 13.202 15.6531 13.026C15.7925 12.85 15.9611 12.6997 16.1591 12.575C16.3645 12.443 16.5515 12.3477 16.7201 12.289C16.8888 12.223 17.0721 12.1717 17.2701 12.135C17.4755 12.0983 17.6258 12.08 17.7211 12.08C17.8165 12.0727 17.9118 12.069 18.0071 12.069C18.8358 12.069 19.5068 12.2707 20.0201 12.674C20.5335 13.0773 20.7901 13.6787 20.7901 14.478C20.7901 14.7347 20.7645 14.973 20.7131 15.193C20.6691 15.4057 20.5848 15.6073 20.4601 15.798C20.3428 15.9813 20.2328 16.1353 20.1301 16.26C20.0348 16.3847 19.8808 16.524 19.6681 16.678C19.4555 16.832 19.2905 16.9457 19.1731 17.019C19.0631 17.0923 18.8798 17.206 18.6231 17.36C18.5498 17.404 18.4948 17.437 18.4581 17.459C17.8275 17.8477 17.4095 18.1263 17.2041 18.295C16.9988 18.4563 16.8521 18.636 16.7641 18.834H20.7131ZM25.7248 19.956C25.3802 20.1393 24.9768 20.231 24.5148 20.231C24.0528 20.231 23.6458 20.1393 23.2938 19.956C22.9492 19.7653 22.6778 19.5343 22.4798 19.263C22.2818 18.9843 22.1205 18.6543 21.9958 18.273C21.8785 17.8843 21.8015 17.525 21.7648 17.195C21.7282 16.865 21.7098 16.5167 21.7098 16.15C21.7098 15.7833 21.7282 15.435 21.7648 15.105C21.8015 14.775 21.8785 14.4193 21.9958 14.038C22.1205 13.6493 22.2818 13.3193 22.4798 13.048C22.6778 12.7693 22.9492 12.5383 23.2938 12.355C23.6458 12.1643 24.0528 12.069 24.5148 12.069C24.9768 12.069 25.3802 12.1643 25.7248 12.355C26.0768 12.5383 26.3518 12.7693 26.5498 13.048C26.7478 13.3193 26.9055 13.6493 27.0228 14.038C27.1475 14.4193 27.2282 14.775 27.2648 15.105C27.3015 15.435 27.3198 15.7833 27.3198 16.15C27.3198 16.5167 27.3015 16.865 27.2648 17.195C27.2282 17.525 27.1475 17.8843 27.0228 18.273C26.9055 18.6543 26.7478 18.9843 26.5498 19.263C26.3518 19.5343 26.0768 19.7653 25.7248 19.956ZM24.1958 19.032C24.2912 19.054 24.3975 19.065 24.5148 19.065C24.6322 19.065 24.7385 19.054 24.8338 19.032C24.9292 19.01 25.0465 18.944 25.1858 18.834C25.3252 18.724 25.4425 18.5737 25.5378 18.383C25.6332 18.185 25.7138 17.8953 25.7798 17.514C25.8532 17.1327 25.8898 16.678 25.8898 16.15C25.8898 15.622 25.8532 15.1673 25.7798 14.786C25.7138 14.4047 25.6332 14.1187 25.5378 13.928C25.4425 13.73 25.3252 13.576 25.1858 13.466C25.0465 13.356 24.9292 13.29 24.8338 13.268C24.7385 13.246 24.6322 13.235 24.5148 13.235C24.3975 13.235 24.2912 13.246 24.1958 13.268C24.1005 13.29 23.9832 13.356 23.8438 13.466C23.7045 13.576 23.5872 13.73 23.4918 13.928C23.3965 14.1187 23.3122 14.4047 23.2388 14.786C23.1728 15.1673 23.1398 15.622 23.1398 16.15C23.1398 16.678 23.1728 17.1327 23.2388 17.514C23.3122 17.8953 23.3965 18.185 23.4918 18.383C23.5872 18.5737 23.7045 18.724 23.8438 18.834C23.9832 18.944 24.1005 19.01 24.1958 19.032ZM30.2085 20L34.8395 12.3H35.8625L31.2315 20H30.2085ZM28.8995 12.828C29.2295 12.4173 29.6879 12.212 30.2745 12.212C30.8612 12.212 31.3195 12.4173 31.6495 12.828C31.9795 13.2313 32.1445 13.7593 32.1445 14.412C32.1445 15.0647 31.9795 15.5963 31.6495 16.007C31.3195 16.4103 30.8612 16.612 30.2745 16.612C29.6879 16.612 29.2295 16.4103 28.8995 16.007C28.5695 15.5963 28.4045 15.0647 28.4045 14.412C28.4045 13.7593 28.5695 13.2313 28.8995 12.828ZM31.2645 14.412C31.2645 13.4293 30.9345 12.938 30.2745 12.938C29.6145 12.938 29.2845 13.4293 29.2845 14.412C29.2845 15.3947 29.6145 15.886 30.2745 15.886C30.9345 15.886 31.2645 15.3947 31.2645 14.412ZM34.4215 16.304C34.7515 15.8933 35.2099 15.688 35.7965 15.688C36.3832 15.688 36.8415 15.8933 37.1715 16.304C37.5015 16.7073 37.6665 17.2353 37.6665 17.888C37.6665 18.5407 37.5015 19.0723 37.1715 19.483C36.8415 19.8863 36.3832 20.088 35.7965 20.088C35.2099 20.088 34.7515 19.8863 34.4215 19.483C34.0915 19.0723 33.9265 18.5407 33.9265 17.888C33.9265 17.2353 34.0915 16.7073 34.4215 16.304ZM36.7865 17.888C36.7865 16.9053 36.4565 16.414 35.7965 16.414C35.1365 16.414 34.8065 16.9053 34.8065 17.888C34.8065 18.8707 35.1365 19.362 35.7965 19.362C36.4565 19.362 36.7865 18.8707 36.7865 17.888Z" fill="white"/>
</svg>
